<svg xmlns="http://www.w3.org/2000/svg" width="1920" height="1080"><path d="M-392,-474L-155,-480L425,-557Z" fill="#fbfbfb" stroke="#fbfbfb" stroke-width="1.51"/><path d="M-97,1518L-381,1502L892,1661Z" fill="#eaeaea" stroke="#eaeaea" stroke-width="1.51"/><path d="M425,-557L1045,-483L1510,-468Z" fill="#f5f5f5" stroke="#f5f5f5" stroke-width="1.51"/><path d="M1510,-468L1910,-407L2344,-401Z" fill="#eeeeee" stroke="#eeeeee" stroke-width="1.51"/><path d="M2031,766L2217,865L2439,462Z" fill="#e3e3e3" stroke="#e3e3e3" stroke-width="1.51"/><path d="M2079,213L2031,766L2439,462Z" fill="#e6e6e6" stroke="#e6e6e6" stroke-width="1.51"/><path d="M2249,-44L2079,213L2439,462Z" fill="#e9e9e9" stroke="#e9e9e9" stroke-width="1.51"/><path d="M2344,-401L2249,-44L2439,462Z" fill="#eaeaea" stroke="#eaeaea" stroke-width="1.51"/><path d="M2217,865L2376,1201L2439,462Z" fill="#e1e1e1" stroke="#e1e1e1" stroke-width="1.51"/><path d="M1849,1399L1641,1622L2285,1466Z" fill="#dedede" stroke="#dedede" stroke-width="1.51"/><path d="M1956,-113L2249,-44L2344,-401Z" fill="#ececec" stroke="#ececec" stroke-width="1.51"/><path d="M1897,1087L2285,1466L2376,1201Z" fill="#dedede" stroke="#dedede" stroke-width="1.51"/><path d="M2217,865L1897,1087L2376,1201Z" fill="#e0e0e0" stroke="#e0e0e0" stroke-width="1.51"/><path d="M1897,1087L1849,1399L2285,1466Z" fill="#dfdfdf" stroke="#dfdfdf" stroke-width="1.51"/><path d="M1910,-407L1956,-113L2344,-401Z" fill="#ededed" stroke="#ededed" stroke-width="1.51"/><path d="M1956,-113L2079,213L2249,-44Z" fill="#ebebeb" stroke="#ebebeb" stroke-width="1.51"/><path d="M1632,482L2031,766L2079,213Z" fill="#e7e7e7" stroke="#e7e7e7" stroke-width="1.51"/><path d="M2031,766L1897,1087L2217,865Z" fill="#e2e2e2" stroke="#e2e2e2" stroke-width="1.51"/><path d="M1956,-113L1488,84L2079,213Z" fill="#ececec" stroke="#ececec" stroke-width="1.51"/><path d="M1488,84L1632,482L2079,213Z" fill="#ebebeb" stroke="#ebebeb" stroke-width="1.51"/><path d="M1700,1057L1897,1087L2031,766Z" fill="#e2e2e2" stroke="#e2e2e2" stroke-width="1.51"/><path d="M1529,753L1700,1057L2031,766Z" fill="#e4e4e4" stroke="#e4e4e4" stroke-width="1.51"/><path d="M1632,482L1529,753L2031,766Z" fill="#e6e6e6" stroke="#e6e6e6" stroke-width="1.51"/><path d="M1700,1057L1849,1399L1897,1087Z" fill="#e1e1e1" stroke="#e1e1e1" stroke-width="1.51"/><path d="M1910,-407L1510,-468L1956,-113Z" fill="#eeeeee" stroke="#eeeeee" stroke-width="1.51"/><path d="M1510,-468L1488,84L1956,-113Z" fill="#eeeeee" stroke="#eeeeee" stroke-width="1.51"/><path d="M1700,1057L1641,1622L1849,1399Z" fill="#e0e0e0" stroke="#e0e0e0" stroke-width="1.51"/><path d="M1529,753L1094,1010L1700,1057Z" fill="#e4e4e4" stroke="#e4e4e4" stroke-width="1.51"/><path d="M1079,1395L1641,1622L1700,1057Z" fill="#e1e1e1" stroke="#e1e1e1" stroke-width="1.51"/><path d="M1094,1010L1079,1395L1700,1057Z" fill="#e4e4e4" stroke="#e4e4e4" stroke-width="1.51"/><path d="M1066,18L1488,84L1510,-468Z" fill="#f0f0f0" stroke="#f0f0f0" stroke-width="1.51"/><path d="M1488,84L1128,328L1632,482Z" fill="#ececec" stroke="#ececec" stroke-width="1.51"/><path d="M1079,1395L892,1661L1641,1622Z" fill="#e2e2e2" stroke="#e2e2e2" stroke-width="1.51"/><path d="M1128,328L1529,753L1632,482Z" fill="#e9e9e9" stroke="#e9e9e9" stroke-width="1.51"/><path d="M1045,-483L1066,18L1510,-468Z" fill="#f2f2f2" stroke="#f2f2f2" stroke-width="1.51"/><path d="M1128,328L1025,830L1529,753Z" fill="#eaeaea" stroke="#eaeaea" stroke-width="1.51"/><path d="M1025,830L1094,1010L1529,753Z" fill="#e7e7e7" stroke="#e7e7e7" stroke-width="1.51"/><path d="M1066,18L1128,328L1488,84Z" fill="#f0f0f0" stroke="#f0f0f0" stroke-width="1.51"/><path d="M419,1467L-97,1518L892,1661Z" fill="#e9e9e9" stroke="#e9e9e9" stroke-width="1.51"/><path d="M425,-557L751,-376L1045,-483Z" fill="#f7f7f7" stroke="#f7f7f7" stroke-width="1.51"/><path d="M751,-376L894,-63L1045,-483Z" fill="#f5f5f5" stroke="#f5f5f5" stroke-width="1.51"/><path d="M1045,-483L894,-63L1066,18Z" fill="#f3f3f3" stroke="#f3f3f3" stroke-width="1.51"/><path d="M742,1061L1079,1395L1094,1010Z" fill="#e7e7e7" stroke="#e7e7e7" stroke-width="1.51"/><path d="M653,819L1025,830L1128,328Z" fill="#ececec" stroke="#ececec" stroke-width="1.51"/><path d="M710,207L653,819L1128,328Z" fill="#f0f0f0" stroke="#f0f0f0" stroke-width="1.51"/><path d="M1066,18L710,207L1128,328Z" fill="#f1f1f1" stroke="#f1f1f1" stroke-width="1.51"/><path d="M894,-63L710,207L1066,18Z" fill="#f3f3f3" stroke="#f3f3f3" stroke-width="1.51"/><path d="M1025,830L742,1061L1094,1010Z" fill="#e9e9e9" stroke="#e9e9e9" stroke-width="1.51"/><path d="M742,1061L892,1661L1079,1395Z" fill="#e6e6e6" stroke="#e6e6e6" stroke-width="1.51"/><path d="M742,1061L419,1467L892,1661Z" fill="#e8e8e8" stroke="#e8e8e8" stroke-width="1.51"/><path d="M653,819L742,1061L1025,830Z" fill="#eaeaea" stroke="#eaeaea" stroke-width="1.51"/><path d="M429,727L653,819L710,207Z" fill="#f0f0f0" stroke="#f0f0f0" stroke-width="1.51"/><path d="M751,-376L248,-209L894,-63Z" fill="#f7f7f7" stroke="#f7f7f7" stroke-width="1.51"/><path d="M248,-209L710,207L894,-63Z" fill="#f6f6f6" stroke="#f6f6f6" stroke-width="1.51"/><path d="M265,415L429,727L710,207Z" fill="#f3f3f3" stroke="#f3f3f3" stroke-width="1.51"/><path d="M653,819L375,1127L742,1061Z" fill="#ebebeb" stroke="#ebebeb" stroke-width="1.51"/><path d="M375,1127L419,1467L742,1061Z" fill="#ebebeb" stroke="#ebebeb" stroke-width="1.51"/><path d="M425,-557L248,-209L751,-376Z" fill="#f9f9f9" stroke="#f9f9f9" stroke-width="1.51"/><path d="M248,-209L265,415L710,207Z" fill="#f7f7f7" stroke="#f7f7f7" stroke-width="1.51"/><path d="M429,727L375,1127L653,819Z" fill="#ededed" stroke="#ededed" stroke-width="1.51"/><path d="M-96,-84L8,355L248,-209Z" fill="#f9f9f9" stroke="#f9f9f9" stroke-width="1.51"/><path d="M248,-209L8,355L265,415Z" fill="#f7f7f7" stroke="#f7f7f7" stroke-width="1.51"/><path d="M-107,779L-120,1001L375,1127Z" fill="#efefef" stroke="#efefef" stroke-width="1.51"/><path d="M375,1127L-97,1518L419,1467Z" fill="#ebebeb" stroke="#ebebeb" stroke-width="1.51"/><path d="M-155,-480L248,-209L425,-557Z" fill="#fbfbfb" stroke="#fbfbfb" stroke-width="1.51"/><path d="M-107,779L375,1127L429,727Z" fill="#eeeeee" stroke="#eeeeee" stroke-width="1.51"/><path d="M265,415L-107,779L429,727Z" fill="#f2f2f2" stroke="#f2f2f2" stroke-width="1.51"/><path d="M-120,1001L-97,1518L375,1127Z" fill="#ededed" stroke="#ededed" stroke-width="1.51"/><path d="M-155,-480L-96,-84L248,-209Z" fill="#fafafa" stroke="#fafafa" stroke-width="1.51"/><path d="M8,355L-107,779L265,415Z" fill="#f4f4f4" stroke="#f4f4f4" stroke-width="1.51"/><path d="M-120,1001L-388,1278L-97,1518Z" fill="#eeeeee" stroke="#eeeeee" stroke-width="1.51"/><path d="M-347,744L-107,779L8,355Z" fill="#f3f3f3" stroke="#f3f3f3" stroke-width="1.51"/><path d="M-484,284L-347,744L8,355Z" fill="#f5f5f5" stroke="#f5f5f5" stroke-width="1.51"/><path d="M-96,-84L-374,-22L8,355Z" fill="#f9f9f9" stroke="#f9f9f9" stroke-width="1.51"/><path d="M-374,-22L-484,284L8,355Z" fill="#f8f8f8" stroke="#f8f8f8" stroke-width="1.51"/><path d="M-347,744L-120,1001L-107,779Z" fill="#f1f1f1" stroke="#f1f1f1" stroke-width="1.51"/><path d="M-388,1278L-381,1502L-97,1518Z" fill="#ededed" stroke="#ededed" stroke-width="1.51"/><path d="M-155,-480L-392,-474L-96,-84Z" fill="#fcfcfc" stroke="#fcfcfc" stroke-width="1.51"/><path d="M-392,-474L-374,-22L-96,-84Z" fill="#fbfbfb" stroke="#fbfbfb" stroke-width="1.51"/><path d="M-347,744L-388,1278L-120,1001Z" fill="#efefef" stroke="#efefef" stroke-width="1.51"/><path d="M-484,284L-388,1278L-347,744Z" fill="#f2f2f2" stroke="#f2f2f2" stroke-width="1.51"/><path d="M-392,-474L-484,284L-374,-22Z" fill="#fbfbfb" stroke="#fbfbfb" stroke-width="1.51"/><path d="M-388,1278L-484,284L-381,1502Z" fill="#f0f0f0" stroke="#f0f0f0" stroke-width="1.51"/></svg>